<?xml version="1.0" standalone="no"?>
<!DOCTYPE svg PUBLIC "-//W3C//DTD SVG 20010904//EN"
 "http://www.w3.org/TR/2001/REC-SVG-20010904/DTD/svg10.dtd">
<svg version="1.0" xmlns="http://www.w3.org/2000/svg"
 width="1280.000000pt" height="640.000000pt" viewBox="0 0 1280.000000 640.000000"
 preserveAspectRatio="xMidYMid meet">
<g transform="translate(0.000000,640.000000) scale(0.100000,-0.100000)"
fill="#000000" stroke="none">
<path d="M10586 5289 c-876 -56 -1442 -402 -1601 -980 -28 -99 -45 -319 -31
-393 l7 -36 1899 0 1898 0 8 67 c17 164 -21 373 -100 538 -147 310 -407 529
-792 665 -333 118 -810 169 -1288 139z"/>
<path d="M6109 5120 c-916 -64 -1486 -444 -1605 -1069 -17 -87 -23 -278 -10
-319 l7 -22 1894 0 c1298 0 1896 3 1900 10 17 27 17 201 1 300 -102 609 -614
989 -1460 1085 -162 19 -558 27 -727 15z"/>
<path d="M1565 5005 c-520 -52 -905 -198 -1167 -444 -218 -204 -343 -470 -355
-757 -7 -144 4 -177 65 -193 52 -15 3632 -15 3685 0 63 17 70 40 64 187 -12
292 -133 554 -351 760 -264 250 -650 396 -1184 447 -180 18 -578 18 -757 0z"/>
<path d="M9560 3706 c-194 -41 -359 -158 -409 -291 -23 -62 -27 -125 -9 -143
20 -20 56 -14 74 13 l16 25 500 0 500 0 28 -30 c15 -16 33 -30 40 -30 6 0 24
14 38 30 l26 30 494 0 494 0 28 -30 c15 -16 33 -30 40 -30 6 0 24 14 38 30
l26 30 498 0 498 0 16 -25 c11 -17 25 -25 44 -25 40 0 54 22 46 76 -14 105
-78 197 -184 267 -139 90 -267 122 -461 114 -198 -8 -353 -68 -463 -180 l-58
-59 -59 59 c-67 67 -159 120 -271 155 -65 20 -95 23 -230 23 -119 0 -170 -5
-220 -19 -110 -31 -209 -85 -279 -153 l-63 -63 -68 64 c-74 69 -173 124 -275
152 -81 22 -308 28 -395 10z"/>
<path d="M5135 3560 c-289 -46 -503 -231 -508 -438 -1 -48 2 -57 26 -78 50
-43 118 -28 143 32 l14 34 465 0 465 0 11 -27 c18 -47 39 -63 84 -63 44 0 76
24 90 68 l6 22 465 0 464 0 14 -34 c17 -40 42 -56 88 -56 39 0 75 28 84 65 l6
25 469 0 c399 0 469 -2 469 -14 0 -8 12 -28 26 -45 20 -24 34 -31 61 -31 71 0
100 44 89 132 -23 173 -189 326 -422 390 -113 31 -335 31 -448 0 -105 -29
-209 -81 -273 -137 -28 -25 -56 -45 -62 -45 -6 0 -36 20 -67 45 -71 58 -176
111 -273 137 -61 17 -106 21 -226 21 -135 0 -159 -3 -240 -27 -111 -34 -189
-75 -261 -137 l-55 -49 -62 52 c-72 60 -176 112 -279 139 -86 23 -275 32 -363
19z"/>
<path d="M140 3403 c-49 -18 -74 -76 -54 -128 18 -47 -57 -45 1842 -45 1759 0
1780 0 1805 20 31 25 42 65 26 102 -25 62 99 58 -1836 57 -972 0 -1775 -3
-1783 -6z"/>
<path d="M9072 3138 c-7 -7 -12 -21 -12 -33 0 -12 5 -26 12 -33 17 -17 3559
-17 3576 0 15 15 15 51 0 66 -17 17 -3559 17 -3576 0z"/>
<path d="M168 3078 c-77 -20 -168 -136 -168 -213 0 -39 44 -127 81 -162 72
-68 -72 -63 1842 -63 l1733 0 55 28 c35 18 64 42 84 70 27 40 30 51 30 126 0
75 -3 87 -29 125 -16 23 -50 54 -75 69 l-46 27 -1735 2 c-1107 0 -1748 -3
-1772 -9z"/>
<path d="M4655 2845 c-116 -31 -176 -167 -120 -276 21 -39 79 -87 122 -98 56
-16 3438 -15 3484 0 163 55 189 264 44 354 l-48 30 -1716 2 c-1408 1 -1725 -1
-1766 -12z"/>
<path d="M9124 2849 c-119 -27 -184 -170 -128 -280 19 -39 78 -86 121 -98 56
-16 3438 -15 3484 0 19 7 49 23 67 36 107 80 91 261 -31 325 l-42 23 -1715 1
c-1027 1 -1731 -2 -1756 -7z"/>
<path d="M70 2520 c-29 -29 -33 -60 -27 -184 13 -279 140 -545 356 -748 324
-305 842 -458 1551 -458 711 0 1226 153 1553 460 221 207 343 469 354 765 5
129 5 130 -20 158 l-26 27 -1861 0 c-1839 0 -1860 0 -1880 -20z"/>
<path d="M4523 2302 c-7 -5 -22 -44 -33 -88 -39 -150 -26 -357 32 -504 107
-271 392 -492 724 -559 55 -11 172 -25 260 -30 228 -13 1813 -6 1939 9 212 24
345 66 501 157 113 66 247 203 301 308 95 184 107 392 36 606 -14 44 -33 87
-40 95 -12 12 -286 14 -1861 14 -1016 0 -1853 -4 -1859 -8z"/>
<path d="M8984 2302 c-6 -4 -20 -34 -30 -67 -15 -48 -19 -92 -19 -220 0 -176
14 -243 77 -370 119 -238 392 -433 694 -494 162 -33 371 -39 1269 -36 886 3
980 7 1146 50 186 48 391 171 498 298 89 106 130 192 162 340 21 100 24 161
10 216 -6 20 -17 69 -26 110 -19 82 -50 162 -68 173 -15 10 -3698 10 -3713 0z"/>
</g>
</svg>
